<?xml version="1.0" standalone="no"?>
<!DOCTYPE svg PUBLIC "-//W3C//DTD SVG 20010904//EN"
 "http://www.w3.org/TR/2001/REC-SVG-20010904/DTD/svg10.dtd">
<svg version="1.0" xmlns="http://www.w3.org/2000/svg"
 width="880.000000pt" height="922.000000pt" viewBox="0 0 880.000000 922.000000"
 preserveAspectRatio="xMidYMid meet">

<g transform="translate(0.000000,922.000000) scale(0.100000,-0.100000)"
fill="#000000" stroke="none">
<path d="M595 8814 c-127 -20 -185 -62 -185 -137 0 -73 43 -139 196 -297 153
-159 189 -213 235 -347 38 -113 53 -198 84 -478 101 -905 292 -1640 580 -2230
156 -318 307 -506 521 -648 332 -220 746 -327 1434 -372 129 -8 268 -18 308
-21 l73 -6 -3 -1306 -3 -1307 -22 -78 c-81 -285 -278 -416 -673 -448 -74 -6
-163 -13 -197 -15 l-63 -6 0 -52 c0 -29 3 -101 7 -159 l6 -107 1469 0 1468 0
0 145 0 144 -42 11 c-189 48 -346 94 -407 119 -198 80 -308 186 -364 350 l-22
66 -3 1321 -2 1320 247 12 c461 23 792 80 1133 197 160 55 400 169 525 249
477 308 785 768 905 1352 54 260 67 443 75 1064 8 669 35 866 140 1025 22 32
98 121 169 197 221 235 253 303 179 373 -115 106 -535 86 -797 -38 -234 -111
-426 -282 -595 -531 -314 -463 -408 -811 -466 -1726 -39 -617 -66 -784 -162
-974 -176 -349 -503 -539 -1033 -600 -74 -9 -177 -16 -228 -16 l-92 0 2 1533
3 1532 28 58 c85 172 314 320 680 441 89 30 177 57 195 61 l32 7 0 139 0 139
-1535 0 -1535 0 0 -199 0 -198 163 -6 c436 -16 699 -164 794 -447 17 -52 18
-128 21 -1550 1 -822 1 -1499 -1 -1505 -8 -18 -365 1 -527 29 -628 107 -905
413 -1029 1136 -11 64 -34 237 -51 385 -97 848 -186 1256 -339 1567 -98 196
-169 281 -401 477 -263 223 -379 285 -620 335 -82 16 -227 27 -275 20z"/>
</g>
</svg>
